<svg xmlns="http://www.w3.org/2000/svg" width="24" height="24" viewBox="0 0 24 24" fill="none" stroke="#FFFFFF" stroke-width="2" stroke-linecap="round" stroke-linejoin="round" class="feather feather-github"><path d="M9 19c-5 1.5-5-2.5-7-3m14 6v-3.87a3.37 3.37 0 0 0-.94-2.61c3.14-.35 6.44-1.54 6.44-7A5.44 5.44 0 0 0 20 4.77 5.07 5.07 0 0 0 19.91 3c-.58-.35-1.5-.35-2 0A5.07 5.07 0 0 0 16 3.26C15 2.59 14 2 12 2c-2 0-3 0.59-4 1.26A5.07 5.07 0 0 0 4.09 3c-.5-.35-1.42-.35-2 0A5.07 5.07 0 0 0 2 4.77a5.44 5.44 0 0 0-1.5 3.78c0 5.42 3.3 6.61 6.44 7A3.37 3.37 0 0 0 9 18.13V22"></path></svg> 