<?xml version="1.0" standalone="no"?>
<!DOCTYPE svg PUBLIC "-//W3C//DTD SVG 20010904//EN"
 "http://www.w3.org/TR/2001/REC-SVG-20010904/DTD/svg10.dtd">
<svg version="1.0" xmlns="http://www.w3.org/2000/svg"
 width="1024.000000pt" height="1024.000000pt" viewBox="0 0 1024.000000 1024.000000"
 preserveAspectRatio="xMidYMid meet">

<g transform="translate(0.000000,1024.000000) scale(0.100000,-0.100000)"
fill="#000000" stroke="none">
<path d="M0 5120 l0 -5120 5120 0 5120 0 0 5120 0 5120 -5120 0 -5120 0 0
-5120z m5123 1749 c55 -15 112 -70 127 -123 10 -37 9 -53 -4 -98 -8 -30 -24
-62 -34 -71 -53 -48 -157 -60 -229 -28 -121 56 -104 239 28 305 60 30 60 30
112 15z m-2020 -728 c42 -16 47 -50 50 -309 l2 -242 235 2 235 3 5 263 c4 219
8 264 20 272 14 9 148 16 220 11 19 -1 41 -9 48 -18 19 -26 17 -1321 -2 -1368
-29 -70 -120 -52 -198 38 -81 94 -82 99 -86 310 l-4 187 -240 0 -241 0 6 -142
5 -142 -51 -56 c-51 -55 -84 -101 -163 -227 -21 -35 -42 -63 -46 -63 -4 0 -16
12 -25 27 -17 25 -18 77 -21 726 -2 504 0 703 9 713 10 12 41 16 176 22 23 1
53 -2 66 -7z m3745 -14 c23 -18 43 -64 124 -287 214 -582 391 -1094 386 -1119
-2 -8 -14 -18 -28 -22 -33 -9 -120 -11 -160 -2 -49 9 -105 74 -151 172 -68
147 -89 187 -89 169 0 -13 -13 -18 -56 -24 -58 -7 -165 -1 -198 12 -24 9 -18
63 16 130 l25 49 72 -1 c72 -1 72 -1 66 23 -4 16 -2 22 5 18 16 -10 12 8 -34
147 -74 223 -88 251 -99 186 -3 -18 -31 -100 -62 -183 -32 -82 -79 -213 -106
-290 -27 -77 -56 -157 -65 -177 -15 -34 -18 -36 -43 -27 -47 18 -128 -4 -176
-48 -44 -40 -145 -102 -145 -89 0 8 18 54 41 103 23 48 52 126 65 173 12 47
46 150 74 230 28 80 62 179 74 220 13 41 34 97 46 124 12 27 30 78 41 113 10
35 26 78 37 96 11 18 28 66 37 107 10 41 33 104 51 140 32 62 36 65 76 71 55
9 159 1 176 -14z m-2318 -6 c6 -13 10 -245 10 -683 0 -736 4 -695 -66 -724
-74 -31 -163 -10 -208 48 l-26 35 0 656 0 656 22 15 c17 12 50 16 140 16 106
0 118 -2 128 -19z m608 -8 c10 -16 54 -91 97 -168 98 -177 142 -251 173 -293
23 -32 24 -33 44 -15 11 10 30 41 43 68 12 28 30 58 39 67 30 31 104 142 130
196 14 28 29 52 35 52 5 0 26 27 46 60 l36 60 129 0 c124 0 128 -1 133 -22 4
-13 4 -160 2 -328 -3 -168 0 -395 6 -504 12 -226 13 -221 -68 -281 -22 -16
-69 -51 -104 -77 -35 -26 -86 -67 -113 -90 l-48 -42 7 373 c5 257 4 372 -3
367 -5 -3 -25 -32 -42 -64 -65 -115 -242 -374 -250 -366 -19 21 -203 300 -235
358 -64 115 -61 128 -69 -301 -4 -229 -11 -394 -17 -405 -13 -25 -97 -78 -122
-78 -33 0 -96 42 -124 83 l-28 40 0 659 c0 575 2 660 15 668 8 5 72 10 142 10
l127 0 19 -27z m-1676 -1131 c-6 -83 22 -206 61 -271 39 -64 147 -168 239
-227 82 -54 212 -98 349 -120 129 -21 521 -15 664 10 276 47 707 175 817 242
31 19 66 34 79 34 12 0 43 -13 68 -30 74 -47 157 -64 289 -57 l113 5 -14 -21
c-19 -30 -122 -97 -247 -161 -134 -69 -442 -198 -540 -226 -41 -11 -107 -32
-146 -45 -99 -33 -442 -111 -544 -124 -128 -15 -256 -24 -249 -17 3 3 18 7 32
8 15 1 27 7 27 13 0 5 5 3 10 -5 5 -8 10 -10 10 -4 0 6 8 11 18 11 77 0 122 4
122 12 0 5 -15 8 -32 6 -32 -3 -32 -3 -8 8 14 6 28 16 32 22 5 6 8 2 8 -8 0
-11 4 -15 12 -11 8 5 9 2 5 -9 -3 -10 -2 -17 3 -17 6 0 11 12 11 28 1 15 3 20
6 10 3 -10 17 -17 43 -20 43 -4 117 12 88 19 -10 3 -18 11 -18 19 0 8 4 13 9
10 5 -3 11 3 14 14 3 11 1 23 -4 26 -5 3 -6 10 -3 16 4 6 -3 5 -16 -2 -12 -7
-19 -17 -16 -26 3 -8 1 -14 -4 -14 -18 0 -25 5 -22 17 1 6 -2 14 -8 18 -23 14
-8 -35 16 -54 15 -12 25 -21 23 -22 -35 -7 -48 -7 -66 -2 -13 3 -20 9 -17 14
3 5 -11 9 -31 9 -20 0 -34 4 -30 10 3 5 12 7 19 4 12 -4 13 2 5 33 -12 52 -11
66 3 57 7 -4 8 -3 4 5 -11 17 -26 3 -26 -24 0 -13 -4 -26 -8 -29 -15 -9 0 59
16 72 14 11 14 12 0 12 -8 0 -20 -10 -27 -22 l-12 -23 5 23 c2 12 0 22 -5 22
-5 0 -10 -10 -10 -22 -1 -18 -2 -19 -6 -5 -3 10 -10 16 -16 14 -7 -2 -20 2
-29 10 -20 17 -40 9 -36 -15 4 -23 -16 -27 -22 -5 -8 29 -38 28 -46 -2 l-7
-27 -14 31 -15 30 -20 -22 -19 -22 6 25 c5 25 5 25 -6 3 -13 -25 -35 -32 -25
-8 3 8 1 15 -4 15 -6 0 -10 -6 -10 -14 0 -8 -4 -17 -9 -20 -5 -3 -8 2 -7 11 0
9 -5 18 -11 20 -7 3 -13 -2 -13 -11 0 -26 -17 -18 -24 10 -6 21 -9 24 -21 14
-8 -7 -22 -9 -31 -6 -13 5 -15 1 -10 -21 5 -21 4 -24 -4 -13 -6 10 -10 11 -10
3 0 -23 -20 -14 -21 10 -1 13 -6 4 -12 -20 -9 -41 -27 -59 -27 -28 0 8 -4 15
-10 15 -5 0 -10 -9 -10 -20 0 -11 -4 -20 -10 -20 -5 0 -10 7 -10 15 0 21 -20
19 -20 -2 -1 -14 -4 -12 -15 7 l-15 25 6 -30 c5 -29 5 -29 -10 -11 -15 19 -16
19 -16 -8 0 -23 4 -27 20 -23 11 3 20 1 20 -4 0 -5 -9 -9 -21 -9 -11 0 -17 -4
-14 -10 3 -5 15 -10 26 -10 10 0 19 -7 19 -15 0 -18 16 -20 23 -2 3 8 9 6 20
-8 15 -19 14 -20 -26 -26 -46 -7 -41 -11 13 -14 19 -1 38 3 42 9 5 7 8 6 9 -4
0 -10 3 -8 9 5 7 17 9 17 9 3 1 -15 5 -16 27 -8 32 13 37 12 29 0 -6 -10 4
-11 78 -12 20 0 37 -5 37 -11 0 -11 -205 -4 -330 12 -160 21 -347 88 -481 173
-231 146 -323 362 -256 597 13 44 37 100 53 123 26 39 146 168 156 168 2 0 2
-26 0 -58z m3362 -303 c3 -17 10 -28 16 -24 5 3 10 2 10 -4 0 -6 8 -7 17 -4
12 5 15 2 10 -10 -8 -20 3 -22 23 -4 7 6 -18 -24 -56 -67 -71 -81 -298 -289
-395 -362 -260 -196 -483 -328 -794 -469 -305 -139 -697 -254 -1015 -297 -203
-27 -610 -32 -750 -9 -303 49 -568 219 -666 426 -36 75 -74 209 -74 258 0 48
21 157 31 157 4 0 16 -16 25 -36 41 -86 217 -237 374 -322 54 -29 112 -49 210
-71 120 -28 168 -40 193 -46 4 -2 21 -3 39 -4 28 -1 30 -2 14 -14 -16 -12 -16
-13 6 -13 13 0 26 5 31 10 5 7 11 6 18 -4 8 -11 12 -12 16 -2 6 15 33 16 33 1
0 -5 -4 -7 -10 -4 -5 3 -10 2 -10 -4 0 -5 10 -11 23 -13 19 -3 22 -9 23 -50 1
-50 -9 -61 -41 -46 -18 7 -18 8 3 4 17 -3 22 -1 19 9 -3 7 0 18 6 24 8 8 8 14
-1 23 -9 9 -15 9 -24 0 -7 -7 -20 -12 -29 -12 -17 0 -34 -26 -30 -47 1 -8 -4
-10 -14 -7 -8 3 -15 1 -15 -6 0 -6 5 -8 10 -5 6 3 10 0 10 -7 0 -10 2 -10 9 1
7 11 15 7 40 -20 17 -18 31 -38 31 -44 0 -5 5 -3 10 5 8 12 13 11 33 -8 13
-12 33 -22 45 -22 12 0 22 -6 23 -12 0 -10 2 -10 6 0 2 6 20 12 39 12 19 0 34
3 34 8 0 4 11 12 25 19 28 13 30 10 14 -19 -10 -18 -9 -20 6 -15 9 4 23 0 31
-8 12 -12 20 -12 36 -4 16 9 23 8 29 -2 6 -10 2 -16 -14 -21 -12 -3 -17 -7
-12 -7 6 -1 3 -6 -5 -12 -12 -8 -12 -9 5 -7 24 4 67 47 59 59 -3 5 -1 9 5 9
16 0 22 -18 9 -23 -7 -2 -10 -7 -7 -11 4 -4 14 0 23 9 9 9 16 12 16 6 0 -6 5
-11 11 -11 5 0 7 5 4 10 -8 13 8 13 22 -1 8 -8 13 -7 18 2 5 7 4 10 -2 6 -6
-4 -16 0 -23 8 -11 13 -10 14 6 8 16 -6 17 -4 6 9 -11 13 -9 16 15 16 16 0 35
-5 43 -11 8 -7 6 -1 -5 12 l-20 24 21 -7 c16 -5 23 -2 27 13 3 13 -1 21 -12
24 -11 3 -9 5 7 6 12 0 22 7 22 14 0 8 4 7 10 -3 8 -13 10 -12 10 3 0 20 4 21
30 7 16 -8 22 -6 32 9 12 19 12 19 33 -3 17 -19 23 -20 33 -9 16 16 46 18 36
1 -5 -7 -3 -8 5 -3 9 5 4 15 -18 34 l-31 26 20 25 c16 20 20 22 20 8 0 -10 -6
-18 -12 -18 -10 0 -9 -3 1 -9 7 -5 10 -15 7 -22 -4 -8 -2 -7 6 2 7 9 19 14 27
11 11 -4 11 -6 0 -13 -9 -6 -10 -9 -2 -9 22 0 24 19 3 33 -16 11 -19 21 -14
41 5 23 3 26 -22 27 -22 1 -24 3 -8 6 16 3 20 10 17 23 -3 12 2 20 14 23 10 3
0 3 -22 0 -49 -7 -55 -10 -55 -28 0 -11 -6 -12 -26 -5 -33 13 -34 13 -35 -7
-1 -17 -2 -16 -6 0 -4 16 -7 17 -26 4 -14 -8 -44 -12 -81 -11 -63 3 -91 14
-35 14 19 0 99 14 179 30 80 17 170 35 200 41 124 23 447 122 725 222 131 48
360 148 491 216 151 79 388 229 488 310 76 61 118 91 127 91 4 0 9 -14 13 -31z
m37 -6 c13 -16 12 -17 -3 -4 -10 7 -18 15 -18 17 0 8 8 3 21 -13z m-46 -440
c-134 -129 -229 -203 -455 -355 -145 -98 -327 -204 -336 -196 -2 2 27 22 64
43 152 89 516 349 662 475 63 54 129 110 145 124 68 58 33 18 -80 -91z m-2582
-50 c-7 -2 -19 -2 -25 0 -7 3 -2 5 12 5 14 0 19 -2 13 -5z m217 -23 c0 -5 -4
-10 -10 -10 -5 0 -10 5 -10 10 0 6 5 10 10 10 6 0 10 -4 10 -10z m71 -13 c-10
-9 -11 -8 -5 6 3 10 9 15 12 12 3 -3 0 -11 -7 -18z m-144 -9 c-3 -8 -6 -5 -6
6 -1 11 2 17 5 13 3 -3 4 -12 1 -19z m-307 -53 c0 -8 -4 -15 -10 -15 -5 0 -10
7 -10 15 0 8 5 15 10 15 6 0 10 -7 10 -15z m525 -17 c6 -4 2 -8 -7 -8 -10 0
-18 7 -18 17 0 9 3 12 8 7 4 -5 12 -12 17 -16z m-45 -48 c0 -5 -4 -10 -10 -10
-5 0 -10 5 -10 10 0 6 5 10 10 10 6 0 10 -4 10 -10z m310 -210 c0 -5 -10 -10
-22 -9 -22 0 -22 1 -3 9 11 5 21 9 23 9 1 1 2 -3 2 -9z m-337 -27 c-13 -2 -35
-2 -50 0 -16 2 -5 4 22 4 28 0 40 -2 28 -4z m-223 -9 c-58 -8 -150 -8 -150 -1
0 4 39 6 88 6 48 -1 76 -3 62 -5z m565 -11 c-11 -3 -25 -9 -32 -15 -7 -6 -14
-5 -19 3 -4 8 -3 9 4 5 7 -4 12 -2 12 3 0 6 12 10 28 10 20 -1 22 -2 7 -6z
m-648 -35 c-3 -7 -5 -2 -5 12 0 14 2 19 5 13 2 -7 2 -19 0 -25z m487 2 c-6 -6
-10 -3 -10 10 0 13 4 16 10 10 7 -7 7 -13 0 -20z m-473 -18 c35 5 45 -5 29
-29 -10 -16 -10 -16 -5 3 5 18 2 20 -25 16 -35 -5 -40 -19 -7 -25 19 -4 18 -4
-5 -6 -26 -1 -28 2 -27 37 1 20 3 29 6 19 4 -15 12 -18 34 -15z m594 10 c-3
-3 -11 0 -18 7 -9 10 -8 11 6 5 10 -3 15 -9 12 -12z m-478 -34 c-3 -7 -5 -2
-5 12 0 14 2 19 5 13 2 -7 2 -19 0 -25z m-197 16 c0 -9 -30 -36 -30 -27 0 4
-7 -1 -15 -11 -15 -19 -15 -19 -15 2 0 15 6 22 20 22 11 0 20 5 20 10 0 6 5
10 10 10 6 0 10 -3 10 -6z m587 -26 c-3 -7 -5 -2 -5 12 0 14 2 19 5 13 2 -7 2
-19 0 -25z m93 2 c0 -5 -5 -10 -11 -10 -5 0 -7 5 -4 10 3 6 8 10 11 10 2 0 4
-4 4 -10z m-600 -29 c0 -6 -4 -13 -10 -16 -5 -3 -10 1 -10 9 0 9 5 16 10 16 6
0 10 -4 10 -9z m55 -18 c9 4 14 3 10 -2 -3 -5 1 -11 7 -14 7 -2 -2 -4 -19 -5
-28 -1 -33 3 -33 21 0 17 2 19 9 8 5 -8 16 -11 26 -8z m60 -43 c3 -5 -1 -10
-10 -10 -9 0 -13 5 -10 10 3 6 8 10 10 10 2 0 7 -4 10 -10z m-135 -10 c0 -5
-5 -10 -11 -10 -5 0 -7 5 -4 10 3 6 8 10 11 10 2 0 4 -4 4 -10z m45 -19 c-8
-13 -35 -15 -35 -2 0 5 8 11 18 13 21 5 26 2 17 -11z m52 -3 c-3 -8 -6 -5 -6
6 -1 11 2 17 5 13 3 -3 4 -12 1 -19z m-17 8 c0 -3 -4 -8 -10 -11 -5 -3 -10 -1
-10 4 0 6 5 11 10 11 6 0 10 -2 10 -4z m141 -38 c-10 -11 -11 -9 -5 6 5 13 4
17 -4 12 -8 -4 -12 0 -12 11 0 16 1 16 17 0 14 -14 15 -19 4 -29z m34 24 c-3
-3 -11 0 -18 7 -9 10 -8 11 6 5 10 -3 15 -9 12 -12z m75 8 c0 -5 -7 -7 -15 -4
-8 4 -15 8 -15 10 0 2 7 4 15 4 8 0 15 -4 15 -10z m-207 -295 c147 0 267 -3
267 -7 0 -15 -154 -40 -275 -45 -134 -6 -256 5 -361 33 -96 25 -91 36 11 27
50 -4 210 -8 358 -8z"/>
<path d="M4148 4223 c6 -2 18 -2 25 0 6 3 1 5 -13 5 -14 0 -19 -2 -12 -5z"/>
<path d="M4288 4223 c6 -2 18 -2 25 0 6 3 1 5 -13 5 -14 0 -19 -2 -12 -5z"/>
<path d="M4330 4221 c0 -4 11 -6 25 -3 14 2 25 6 25 8 0 2 -11 4 -25 4 -14 0
-25 -4 -25 -9z"/>
<path d="M4402 4216 c7 -8 17 -12 22 -9 4 3 2 9 -5 14 -22 13 -31 11 -17 -5z"/>
<path d="M4488 4223 c6 -2 18 -2 25 0 6 3 1 5 -13 5 -14 0 -19 -2 -12 -5z"/>
<path d="M4653 4143 c9 -2 23 -2 30 0 6 3 -1 5 -18 5 -16 0 -22 -2 -12 -5z"/>
<path d="M4740 4130 c0 -5 5 -10 10 -10 6 0 10 5 10 10 0 6 -4 10 -10 10 -5 0
-10 -4 -10 -10z"/>
<path d="M4650 4101 c0 -11 5 -23 10 -26 6 -4 10 5 10 19 0 14 -4 26 -10 26
-5 0 -10 -9 -10 -19z"/>
<path d="M5070 4110 c0 -5 5 -10 10 -10 6 0 10 5 10 10 0 6 -4 10 -10 10 -5 0
-10 -4 -10 -10z"/>
<path d="M4828 4043 c7 -3 16 -2 19 1 4 3 -2 6 -13 5 -11 0 -14 -3 -6 -6z"/>
<path d="M4921 3838 c-1 -11 -9 -18 -21 -18 -23 0 -25 -8 -6 -32 17 -23 30
-23 17 -1 -6 12 -5 20 6 28 9 7 13 18 10 26 -4 10 -6 9 -6 -3z"/>
<path d="M4890 3741 c0 -5 7 -11 14 -14 10 -4 13 -1 9 9 -6 15 -23 19 -23 5z"/>
<path d="M4928 3743 c6 -2 18 -2 25 0 6 3 1 5 -13 5 -14 0 -19 -2 -12 -5z"/>
<path d="M4936 3703 c-6 -14 -5 -15 5 -6 7 7 10 15 7 18 -3 3 -9 -2 -12 -12z"/>
<path d="M4915 3660 c3 -5 8 -10 11 -10 2 0 4 5 4 10 0 6 -5 10 -11 10 -5 0
-7 -4 -4 -10z"/>
<path d="M4781 3634 c0 -11 3 -14 6 -6 3 7 2 16 -1 19 -3 4 -6 -2 -5 -13z"/>
<path d="M4690 3612 c0 -4 9 -8 20 -8 11 0 20 4 20 8 0 4 -9 8 -20 8 -11 0
-20 -4 -20 -8z"/>
<path d="M4684 3579 c-3 -6 -1 -16 6 -22 10 -9 11 -9 5 2 -4 8 -2 17 6 22 9 6
10 9 2 9 -6 0 -15 -5 -19 -11z"/>
<path d="M4640 3536 c0 -2 7 -7 16 -10 8 -3 12 -2 9 4 -6 10 -25 14 -25 6z"/>
<path d="M4276 3517 c3 -10 9 -15 12 -12 3 3 0 11 -7 18 -10 9 -11 8 -5 -6z"/>
<path d="M4305 3519 c-4 -6 -4 -13 -1 -16 3 -4 6 -1 6 6 0 7 5 9 10 6 6 -3 10
-1 10 4 0 14 -17 14 -25 0z"/>
<path d="M4165 3510 c-3 -5 -1 -10 4 -10 6 0 11 5 11 10 0 6 -2 10 -4 10 -3 0
-8 -4 -11 -10z"/>
<path d="M4350 3515 c0 -7 30 -13 34 -7 3 4 -4 9 -15 9 -10 1 -19 0 -19 -2z"/>
</g>
</svg>
